<?xml version="1.0"?>
<!-- Generated by SVGo and Plotinum VG -->
<svg width="288pt" height="288pt" viewBox="0 0 288 288"
	xmlns="http://www.w3.org/2000/svg"
	xmlns:xlink="http://www.w3.org/1999/xlink">
<g transform="scale(1, -1) translate(0, -288)">
<path d="M0,0L288,0L288,288L0,288Z" style="fill:#FFFFFF" />
<text x="96.352" y="-276.45" transform="scale(1, -1)"
	style="font-family:Times;font-weight:normal;font-style:normal;font-size:12px">Learned Index RMI</text>
<text x="155.41" y="-3.8613" transform="scale(1, -1)"
	style="font-family:Times;font-weight:normal;font-style:normal;font-size:12px">Age</text>
<text x="42.805" y="-18.634" transform="scale(1, -1)"
	style="font-family:Times;font-weight:normal;font-style:normal;font-size:10px">0</text>
<text x="147.06" y="-18.634" transform="scale(1, -1)"
	style="font-family:Times;font-weight:normal;font-style:normal;font-size:10px">40</text>
<text x="253.81" y="-18.634" transform="scale(1, -1)"
	style="font-family:Times;font-weight:normal;font-style:normal;font-size:10px">80</text>
<path d="M45.305,28.263L45.305,36.263" style="fill:none;stroke:#000000;stroke-width:0.5" />
<path d="M152.06,28.263L152.06,36.263" style="fill:none;stroke:#000000;stroke-width:0.5" />
<path d="M258.81,28.263L258.81,36.263" style="fill:none;stroke:#000000;stroke-width:0.5" />
<path d="M71.993,32.263L71.993,36.263" style="fill:none;stroke:#000000;stroke-width:0.5" />
<path d="M98.681,32.263L98.681,36.263" style="fill:none;stroke:#000000;stroke-width:0.5" />
<path d="M125.37,32.263L125.37,36.263" style="fill:none;stroke:#000000;stroke-width:0.5" />
<path d="M178.75,32.263L178.75,36.263" style="fill:none;stroke:#000000;stroke-width:0.5" />
<path d="M205.43,32.263L205.43,36.263" style="fill:none;stroke:#000000;stroke-width:0.5" />
<path d="M232.12,32.263L232.12,36.263" style="fill:none;stroke:#000000;stroke-width:0.5" />
<path d="M285.5,32.263L285.5,36.263" style="fill:none;stroke:#000000;stroke-width:0.5" />
<path d="M45.305,36.263L285.5,36.263" style="fill:none;stroke:#000000;stroke-width:0.5" />
<g transform="rotate(90)">
<text x="145.21" y="11.555" transform="scale(1, -1)"
	style="font-family:Times;font-weight:normal;font-style:normal;font-size:12px">Index</text>
</g>
<text x="24.055" y="-56.16" transform="scale(1, -1)"
	style="font-family:Times;font-weight:normal;font-style:normal;font-size:10px">0</text>
<text x="24.055" y="-157.69" transform="scale(1, -1)"
	style="font-family:Times;font-weight:normal;font-style:normal;font-size:10px">5</text>
<text x="19.055" y="-259.23" transform="scale(1, -1)"
	style="font-family:Times;font-weight:normal;font-style:normal;font-size:10px">10</text>
<path d="M31.555,59.366L39.555,59.366" style="fill:none;stroke:#000000;stroke-width:0.5" />
<path d="M31.555,160.9L39.555,160.9" style="fill:none;stroke:#000000;stroke-width:0.5" />
<path d="M31.555,262.43L39.555,262.43" style="fill:none;stroke:#000000;stroke-width:0.5" />
<path d="M35.555,79.672L39.555,79.672" style="fill:none;stroke:#000000;stroke-width:0.5" />
<path d="M35.555,99.979L39.555,99.979" style="fill:none;stroke:#000000;stroke-width:0.5" />
<path d="M35.555,120.29L39.555,120.29" style="fill:none;stroke:#000000;stroke-width:0.5" />
<path d="M35.555,140.59L39.555,140.59" style="fill:none;stroke:#000000;stroke-width:0.5" />
<path d="M35.555,181.2L39.555,181.2" style="fill:none;stroke:#000000;stroke-width:0.5" />
<path d="M35.555,201.51L39.555,201.51" style="fill:none;stroke:#000000;stroke-width:0.5" />
<path d="M35.555,221.82L39.555,221.82" style="fill:none;stroke:#000000;stroke-width:0.5" />
<path d="M35.555,242.12L39.555,242.12" style="fill:none;stroke:#000000;stroke-width:0.5" />
<path d="M39.555,45.151L39.555,272.58" style="fill:none;stroke:#000000;stroke-width:0.5" />
<path d="M45.305,111.31L50.207,113.53L55.109,115.75L60.011,117.97L64.912,120.19L69.814,122.4L74.716,124.62L79.618,126.84L84.52,129.06L89.422,131.28L94.324,133.5L99.226,135.72L104.13,137.93L109.03,140.15L113.93,142.37L118.83,144.59L123.74,146.81L128.64,149.03L133.54,151.25L138.44,153.46L143.34,155.68L148.25,157.9L153.15,160.12L158.05,162.34L162.95,164.56L167.85,166.78L172.76,168.99L177.66,171.21L182.56,173.43L187.46,175.65L192.36,177.87L197.26,180.09L202.17,182.3L207.07,184.52L211.97,186.74L216.87,188.96L221.77,191.18L226.68,193.4L231.58,195.62L236.48,197.83L241.38,200.05L246.28,202.27L251.19,204.49L256.09,206.71L260.99,208.93L265.89,211.15L270.79,213.36L275.7,215.58L280.6,217.8L285.5,220.02" style="fill:none;stroke:#5A9BD4;stroke-dasharray:4,5" />
<path d="M45.305,50.392L50.207,52.611L55.109,54.829L60.011,57.048L64.912,59.266L69.814,61.485L74.716,63.703L79.618,65.922L84.52,68.14L89.422,70.359L94.324,72.578L99.226,74.796L104.13,77.015L109.03,79.233L113.93,81.452L118.83,83.67L123.74,85.889L128.64,88.107L133.54,90.326L138.44,92.544L143.34,94.763L148.25,96.982L153.15,99.2L158.05,101.42L162.95,103.64L167.85,105.86L172.76,108.07L177.66,110.29L182.56,112.51L187.46,114.73L192.36,116.95L197.26,119.17L202.17,121.39L207.07,123.6L211.97,125.82L216.87,128.04L221.77,130.26L226.68,132.48L231.58,134.7L236.48,136.92L241.38,139.13L246.28,141.35L251.19,143.57L256.09,145.79L260.99,148.01L265.89,150.23L270.79,152.45L275.7,154.66L280.6,156.88L285.5,159.1" style="fill:none;stroke:#9E67AB;stroke-dasharray:4,5" />
<path d="M47.974,59.366L49.308,79.672L53.311,99.979L106.69,120.29L106.69,140.59L165.4,160.9L285.5,181.2" style="fill:none;stroke:#F15A60" />
<path d="M50.474,59.366A2.5,2.5 0 1 1 45.474,59.366A2.5,2.5 0 1 1 50.474,59.366Z" style="fill:none;stroke:#F15A60;stroke-width:0.5" />
<path d="M51.808,79.672A2.5,2.5 0 1 1 46.808,79.672A2.5,2.5 0 1 1 51.808,79.672Z" style="fill:none;stroke:#F15A60;stroke-width:0.5" />
<path d="M55.811,99.979A2.5,2.5 0 1 1 50.811,99.979A2.5,2.5 0 1 1 55.811,99.979Z" style="fill:none;stroke:#F15A60;stroke-width:0.5" />
<path d="M109.19,120.29A2.5,2.5 0 1 1 104.19,120.29A2.5,2.5 0 1 1 109.19,120.29Z" style="fill:none;stroke:#F15A60;stroke-width:0.5" />
<path d="M109.19,140.59A2.5,2.5 0 1 1 104.19,140.59A2.5,2.5 0 1 1 109.19,140.59Z" style="fill:none;stroke:#F15A60;stroke-width:0.5" />
<path d="M167.9,160.9A2.5,2.5 0 1 1 162.9,160.9A2.5,2.5 0 1 1 167.9,160.9Z" style="fill:none;stroke:#F15A60;stroke-width:0.5" />
<path d="M288,181.2A2.5,2.5 0 1 1 283,181.2A2.5,2.5 0 1 1 288,181.2Z" style="fill:none;stroke:#F15A60;stroke-width:0.5" />
<path d="M45.305,91.005L50.207,93.224L55.109,95.442L60.011,97.661L64.912,99.879L69.814,102.1L74.716,104.32L79.618,106.53L84.52,108.75L89.422,110.97L94.324,113.19L99.226,115.41L104.13,117.63L109.03,119.85L113.93,122.06L118.83,124.28L123.74,126.5L128.64,128.72L133.54,130.94L138.44,133.16L143.34,135.38L148.25,137.59L153.15,139.81L158.05,142.03L162.95,144.25L167.85,146.47L172.76,148.69L177.66,150.91L182.56,153.12L187.46,155.34L192.36,157.56L197.26,159.78L202.17,162L207.07,164.22L211.97,166.44L216.87,168.65L221.77,170.87L226.68,173.09L231.58,175.31L236.48,177.53L241.38,179.75L246.28,181.97L251.19,184.18L256.09,186.4L260.99,188.62L265.89,190.84L270.79,193.06L275.7,195.28L280.6,197.5L285.5,199.71" style="fill:none;stroke:#00FF00;stroke-width:2;stroke-dasharray:2,2" />
<path d="M46.04,45.151L50.207,79.672L55.109,99.979L60.011,99.979L64.912,99.979L69.814,99.979L74.716,99.979L79.618,99.979L84.52,99.979L89.422,99.979L94.324,99.979L99.226,99.979L104.13,99.979L109.03,140.59L113.93,140.59L118.83,140.59L123.74,140.59L128.64,140.59L133.54,140.59L138.44,140.59L143.34,140.59L148.25,140.59L153.15,140.59L158.05,140.59L162.95,140.59L167.85,160.9L172.76,160.9L177.66,160.9L182.56,160.9L187.46,160.9L192.36,160.9L197.26,160.9L202.17,160.9L207.07,160.9L211.97,160.9L216.87,160.9L221.77,160.9L226.68,160.9L231.58,160.9L236.48,160.9L241.38,160.9L246.28,160.9L251.19,160.9L256.09,160.9L260.99,160.9L265.89,160.9L270.79,160.9L275.7,160.9L280.6,160.9L285.5,181.2" style="fill:none;stroke:#0000FF" />
<path d="M45.305,45.151L45.305,272.58" style="fill:none;stroke:#808080;stroke-width:0.25" />
<path d="M152.06,45.151L152.06,272.58" style="fill:none;stroke:#808080;stroke-width:0.25" />
<path d="M258.81,45.151L258.81,272.58" style="fill:none;stroke:#808080;stroke-width:0.25" />
<path d="M45.305,59.366L285.5,59.366" style="fill:none;stroke:#808080;stroke-width:0.25" />
<path d="M45.305,160.9L285.5,160.9" style="fill:none;stroke:#808080;stroke-width:0.25" />
<path d="M45.305,262.43L285.5,262.43" style="fill:none;stroke:#808080;stroke-width:0.25" />
<path d="M268,98.149L288,98.149" style="fill:none;stroke:#5A9BD4;stroke-dasharray:4,5" />
<text x="204.68" y="-94.303" transform="scale(1, -1)"
	style="font-family:Times;font-weight:normal;font-style:normal;font-size:12px">upper bound</text>
<path d="M268,86.372L288,86.372" style="fill:none;stroke:#9E67AB;stroke-dasharray:4,5" />
<text x="204.68" y="-82.525" transform="scale(1, -1)"
	style="font-family:Times;font-weight:normal;font-style:normal;font-size:12px">lower bound</text>
<path d="M268,74.595L288,74.595" style="fill:none;stroke:#F15A60" />
<path d="M280.5,74.595A2.5,2.5 0 1 1 275.5,74.595A2.5,2.5 0 1 1 280.5,74.595Z" style="fill:none;stroke:#F15A60;stroke-width:0.5" />
<text x="240.34" y="-70.748" transform="scale(1, -1)"
	style="font-family:Times;font-weight:normal;font-style:normal;font-size:12px">Keys</text>
<path d="M268,62.817L288,62.817" style="fill:none;stroke:#00FF00;stroke-width:2;stroke-dasharray:2,2" />
<text x="210.02" y="-58.971" transform="scale(1, -1)"
	style="font-family:Times;font-weight:normal;font-style:normal;font-size:12px">Approx (lr)</text>
<path d="M268,51.04L288,51.04" style="fill:none;stroke:#0000FF" />
<text x="241.66" y="-47.193" transform="scale(1, -1)"
	style="font-family:Times;font-weight:normal;font-style:normal;font-size:12px">CDF</text>
</g>
</svg>
