<?xml version="1.0"?>
<!-- Generated by SVGo and Plotinum VG -->
<svg width="288pt" height="288pt" viewBox="0 0 288 288"
	xmlns="http://www.w3.org/2000/svg"
	xmlns:xlink="http://www.w3.org/1999/xlink">
<g transform="scale(1, -1) translate(0, -288)">
<path d="M0,0L288,0L288,288L0,288Z" style="fill:#FFFFFF" />
<text x="96.352" y="-276.45" transform="scale(1, -1)"
	style="font-family:Times;font-weight:normal;font-style:normal;font-size:12px">Learned Index RMI</text>
<text x="152.91" y="-3.8613" transform="scale(1, -1)"
	style="font-family:Times;font-weight:normal;font-style:normal;font-size:12px">Age</text>
<text x="37.805" y="-18.634" transform="scale(1, -1)"
	style="font-family:Times;font-weight:normal;font-style:normal;font-size:10px">0</text>
<text x="144.28" y="-18.634" transform="scale(1, -1)"
	style="font-family:Times;font-weight:normal;font-style:normal;font-size:10px">40</text>
<text x="253.26" y="-18.634" transform="scale(1, -1)"
	style="font-family:Times;font-weight:normal;font-style:normal;font-size:10px">80</text>
<path d="M40.305,28.263L40.305,36.263" style="fill:none;stroke:#000000;stroke-width:0.5" />
<path d="M149.28,28.263L149.28,36.263" style="fill:none;stroke:#000000;stroke-width:0.5" />
<path d="M258.26,28.263L258.26,36.263" style="fill:none;stroke:#000000;stroke-width:0.5" />
<path d="M67.549,32.263L67.549,36.263" style="fill:none;stroke:#000000;stroke-width:0.5" />
<path d="M94.793,32.263L94.793,36.263" style="fill:none;stroke:#000000;stroke-width:0.5" />
<path d="M122.04,32.263L122.04,36.263" style="fill:none;stroke:#000000;stroke-width:0.5" />
<path d="M176.52,32.263L176.52,36.263" style="fill:none;stroke:#000000;stroke-width:0.5" />
<path d="M203.77,32.263L203.77,36.263" style="fill:none;stroke:#000000;stroke-width:0.5" />
<path d="M231.01,32.263L231.01,36.263" style="fill:none;stroke:#000000;stroke-width:0.5" />
<path d="M285.5,32.263L285.5,36.263" style="fill:none;stroke:#000000;stroke-width:0.5" />
<path d="M40.305,36.263L285.5,36.263" style="fill:none;stroke:#000000;stroke-width:0.5" />
<g transform="rotate(90)">
<text x="146.46" y="11.555" transform="scale(1, -1)"
	style="font-family:Times;font-weight:normal;font-style:normal;font-size:12px">Index</text>
</g>
<text x="19.055" y="-44.446" transform="scale(1, -1)"
	style="font-family:Times;font-weight:normal;font-style:normal;font-size:10px">0</text>
<text x="19.055" y="-140.85" transform="scale(1, -1)"
	style="font-family:Times;font-weight:normal;font-style:normal;font-size:10px">3</text>
<text x="19.055" y="-237.25" transform="scale(1, -1)"
	style="font-family:Times;font-weight:normal;font-style:normal;font-size:10px">6</text>
<path d="M26.555,47.651L34.555,47.651" style="fill:none;stroke:#000000;stroke-width:0.5" />
<path d="M26.555,144.05L34.555,144.05" style="fill:none;stroke:#000000;stroke-width:0.5" />
<path d="M26.555,240.45L34.555,240.45" style="fill:none;stroke:#000000;stroke-width:0.5" />
<path d="M30.555,79.785L34.555,79.785" style="fill:none;stroke:#000000;stroke-width:0.5" />
<path d="M30.555,111.92L34.555,111.92" style="fill:none;stroke:#000000;stroke-width:0.5" />
<path d="M30.555,176.18L34.555,176.18" style="fill:none;stroke:#000000;stroke-width:0.5" />
<path d="M30.555,208.32L34.555,208.32" style="fill:none;stroke:#000000;stroke-width:0.5" />
<path d="M30.555,272.58L34.555,272.58" style="fill:none;stroke:#000000;stroke-width:0.5" />
<path d="M34.555,47.651L34.555,272.58" style="fill:none;stroke:#000000;stroke-width:0.5" />
<path d="M43.029,47.651L44.391,79.785L48.478,111.92L102.97,144.05L102.97,176.18L162.9,208.32L285.5,240.45" style="fill:none;stroke:#F15A60" />
<path d="M45.529,47.651A2.5,2.5 0 1 1 40.529,47.651A2.5,2.5 0 1 1 45.529,47.651Z" style="fill:none;stroke:#F15A60;stroke-width:0.5" />
<path d="M46.891,79.785A2.5,2.5 0 1 1 41.891,79.785A2.5,2.5 0 1 1 46.891,79.785Z" style="fill:none;stroke:#F15A60;stroke-width:0.5" />
<path d="M50.978,111.92A2.5,2.5 0 1 1 45.978,111.92A2.5,2.5 0 1 1 50.978,111.92Z" style="fill:none;stroke:#F15A60;stroke-width:0.5" />
<path d="M105.47,144.05A2.5,2.5 0 1 1 100.47,144.05A2.5,2.5 0 1 1 105.47,144.05Z" style="fill:none;stroke:#F15A60;stroke-width:0.5" />
<path d="M105.47,176.18A2.5,2.5 0 1 1 100.47,176.18A2.5,2.5 0 1 1 105.47,176.18Z" style="fill:none;stroke:#F15A60;stroke-width:0.5" />
<path d="M165.4,208.32A2.5,2.5 0 1 1 160.4,208.32A2.5,2.5 0 1 1 165.4,208.32Z" style="fill:none;stroke:#F15A60;stroke-width:0.5" />
<path d="M288,240.45A2.5,2.5 0 1 1 283,240.45A2.5,2.5 0 1 1 288,240.45Z" style="fill:none;stroke:#F15A60;stroke-width:0.5" />
<path d="M40.305,97.718L45.309,101.23L50.313,104.74L55.317,108.25L60.321,111.76L65.325,115.27L70.329,118.78L75.333,122.29L80.337,125.8L85.341,129.31L90.345,132.82L95.349,136.33L100.35,139.85L105.36,143.36L110.36,146.87L115.36,150.38L120.37,153.89L125.37,157.4L130.38,160.91L135.38,164.42L140.38,167.93L145.39,171.44L150.39,174.95L155.4,178.46L160.4,181.97L165.4,185.48L170.41,188.99L175.41,192.51L180.42,196.02L185.42,199.53L190.42,203.04L195.43,206.55L200.43,210.06L205.44,213.57L210.44,217.08L215.44,220.59L220.45,224.1L225.45,227.61L230.46,231.12L235.46,234.63L240.46,238.14L245.47,241.65L250.47,245.16L255.48,248.68L260.48,252.19L265.48,255.7L270.49,259.21L275.49,262.72L280.5,266.23L285.5,269.74" style="fill:none;stroke:#00FF00;stroke-width:2;stroke-dasharray:2,2" />
<path d="M42.807,47.651L45.309,79.785L50.313,111.92L55.317,111.92L60.321,111.92L65.325,111.92L70.329,111.92L75.333,111.92L80.337,111.92L85.341,111.92L90.345,111.92L95.349,111.92L100.35,111.92L105.36,176.18L110.36,176.18L115.36,176.18L120.37,176.18L125.37,176.18L130.38,176.18L135.38,176.18L140.38,176.18L145.39,176.18L150.39,176.18L155.4,176.18L160.4,176.18L165.4,208.32L170.41,208.32L175.41,208.32L180.42,208.32L185.42,208.32L190.42,208.32L195.43,208.32L200.43,208.32L205.44,208.32L210.44,208.32L215.44,208.32L220.45,208.32L225.45,208.32L230.46,208.32L235.46,208.32L240.46,208.32L245.47,208.32L250.47,208.32L255.48,208.32L260.48,208.32L265.48,208.32L270.49,208.32L275.49,208.32L280.5,208.32L285.5,240.45" style="fill:none;stroke:#0000FF" />
<path d="M268,74.595L288,74.595" style="fill:none;stroke:#F15A60" />
<path d="M280.5,74.595A2.5,2.5 0 1 1 275.5,74.595A2.5,2.5 0 1 1 280.5,74.595Z" style="fill:none;stroke:#F15A60;stroke-width:0.5" />
<text x="240.34" y="-70.748" transform="scale(1, -1)"
	style="font-family:Times;font-weight:normal;font-style:normal;font-size:12px">Keys</text>
<path d="M268,62.817L288,62.817" style="fill:none;stroke:#00FF00;stroke-width:2;stroke-dasharray:2,2" />
<text x="210.02" y="-58.971" transform="scale(1, -1)"
	style="font-family:Times;font-weight:normal;font-style:normal;font-size:12px">Approx (lr)</text>
<path d="M268,51.04L288,51.04" style="fill:none;stroke:#0000FF" />
<text x="241.66" y="-47.193" transform="scale(1, -1)"
	style="font-family:Times;font-weight:normal;font-style:normal;font-size:12px">CDF</text>
</g>
</svg>
